<svg version="1.1" id="Layer_1" xmlns="http://www.w3.org/2000/svg" xmlns:xlink="http://www.w3.org/1999/xlink" x="0px" y="0px"
	 width="100%" viewBox="0 0 512 512" enable-background="new 0 0 512 512" xml:space="preserve">
<path fill="#FFFFFE" opacity="1.000000" stroke="none" 
	d="
M513.000000,193.000000 
	C513.000000,299.973999 513.000000,406.447998 513.000000,512.960999 
	C342.401001,512.960999 171.801971,512.960999 1.101477,512.960999 
	C1.101477,342.442688 1.101477,171.885315 1.101477,1.163961 
	C171.666534,1.163961 342.333252,1.163961 513.000000,1.163961 
	C513.000000,64.864655 513.000000,128.682327 513.000000,193.000000 
M267.299835,264.954803 
	C265.022858,263.802856 262.745880,262.650909 260.053925,261.146240 
	C259.801758,261.183960 259.549622,261.221680 259.297455,261.259430 
	C259.458038,261.577911 259.618591,261.896362 259.912506,262.914062 
	C265.389648,273.303009 270.866791,283.691925 276.297882,293.993530 
	C279.808899,289.284790 282.919739,284.573914 286.572296,280.329132 
	C293.623840,272.134247 293.765442,271.954224 286.547333,263.770294 
	C285.341370,262.402954 284.111755,260.958923 282.618988,259.959839 
	C277.452728,256.502167 272.165466,253.225342 266.630829,249.692383 
	C282.759583,247.987808 298.423676,249.163879 314.337555,255.397736 
	C312.658813,246.150208 305.245300,244.199341 299.148712,240.728943 
	C307.325836,239.348938 315.620728,238.936539 322.142395,244.101929 
	C329.689697,250.079636 336.990845,255.823593 346.956879,256.782104 
	C347.401825,256.824890 347.774170,257.391724 348.235596,257.530121 
	C352.219543,258.724915 355.208008,258.771179 358.339325,254.593536 
	C370.149506,238.837036 376.493256,220.866959 382.164734,202.301239 
	C388.826477,180.493744 397.421600,159.522537 411.723572,141.159164 
	C424.391266,124.894188 435.956696,107.770355 447.986420,91.009636 
	C448.787170,89.894012 449.398682,88.642555 450.483978,86.798927 
	C449.215210,87.273491 448.749756,87.358650 448.384247,87.597046 
	C430.337158,99.367661 413.447449,112.573364 398.269928,127.917557 
	C397.052765,129.148132 395.451477,129.998764 394.007385,131.006866 
	C394.007385,131.006866 393.989655,130.991165 393.918976,130.259216 
	C406.830505,104.003975 419.742035,77.748718 432.957550,51.000347 
	C432.889252,50.727749 432.820953,50.455154 432.752686,50.182556 
	C432.423523,50.375694 432.094391,50.568829 431.130829,50.987423 
	C420.751526,60.787006 409.140228,69.606422 400.342529,80.664330 
	C391.699097,91.528435 385.913208,104.666023 378.873352,116.805946 
	C383.551331,100.225258 388.665344,83.844101 393.704651,67.439987 
	C399.253571,49.377014 404.733887,31.292948 410.709320,12.856271 
	C410.720703,12.390307 410.732086,11.924344 410.743439,11.458375 
	C410.304260,11.792672 409.865051,12.126968 408.931488,12.895761 
	C387.721344,35.485153 373.782837,62.340115 363.309998,91.321220 
	C362.296051,84.987274 361.796265,78.867584 361.352539,72.743843 
	C360.910950,66.650284 360.525696,60.552635 360.044800,53.402313 
	C345.374847,77.881248 337.020020,102.844116 337.986420,130.509644 
	C337.538574,130.482468 337.090729,130.455292 336.642883,130.428116 
	C334.319000,114.557655 331.995117,98.687187 329.558838,82.049034 
	C319.234131,98.870239 316.932404,116.657021 317.060547,135.309479 
	C314.218109,131.257599 311.375641,127.205719 307.786957,122.090065 
	C307.120850,133.097610 306.538696,142.718201 305.956512,152.338806 
	C305.416199,152.578293 304.875885,152.817795 304.335571,153.057281 
	C302.927917,151.053894 301.520294,149.050507 300.112671,147.047119 
	C299.803589,147.213806 299.494507,147.380493 299.185425,147.547180 
	C299.185425,156.279160 299.185425,165.011139 299.185425,173.936508 
	C296.774353,174.504959 294.727509,174.987549 292.566833,175.496979 
	C293.517761,183.661148 294.443176,191.606049 295.368561,199.550949 
	C294.960052,199.698654 294.551544,199.846359 294.143036,199.994064 
	C291.916107,198.043686 289.689209,196.093323 286.451599,193.257751 
	C286.451599,201.616562 286.451599,208.649796 286.451599,215.683029 
	C286.074799,215.764038 285.697968,215.845032 285.321167,215.926025 
	C283.156281,211.800858 280.991425,207.675705 278.388367,202.715591 
	C278.388367,213.499695 278.388367,223.259766 278.388367,234.249573 
	C273.521057,228.133057 269.361877,222.906418 265.202667,217.679764 
	C264.990936,217.896027 264.779205,218.112289 264.567505,218.328552 
	C267.446808,226.461029 270.326111,234.593506 273.536652,243.661453 
	C265.798248,241.866592 259.167084,240.328537 251.679810,238.591919 
	C255.223343,244.073853 258.271240,248.617905 261.136322,253.274429 
	C263.515228,257.140839 265.679077,261.139618 267.970886,265.031403 
	C267.970886,265.031403 268.001312,264.981537 267.299835,264.954803 
M235.373184,392.035217 
	C245.213959,401.522461 252.621521,412.461731 255.685867,426.004883 
	C255.830399,426.643646 256.212738,427.224976 256.441711,427.848724 
	C260.831635,439.807068 265.215088,451.767792 269.593170,463.709595 
	C254.598022,469.434265 254.191711,469.765137 253.170044,477.055389 
	C263.244171,471.839447 272.649323,472.802673 281.725494,479.242950 
	C289.025909,484.423187 296.616302,489.193146 303.983978,494.281342 
	C305.831207,495.557068 307.984222,497.103271 308.708313,499.013550 
	C309.115784,500.088501 306.891327,502.161072 305.854065,503.781860 
	C306.957367,504.042542 308.080627,504.350555 309.220856,504.570251 
	C315.521667,505.784271 317.978363,503.118896 315.635193,497.176636 
	C314.057037,493.174530 311.732239,489.472412 309.876282,485.571960 
	C309.010132,483.751648 308.463562,481.779266 307.640411,479.513092 
	C312.598694,478.788116 316.852081,478.712402 318.870087,482.924988 
	C319.861938,484.995544 318.832886,488.034210 318.711578,490.789246 
	C323.250000,491.292938 327.320343,486.243103 325.349579,480.562531 
	C323.725494,475.881226 321.139160,472.168549 315.807526,470.596802 
	C307.063721,468.019165 298.473602,464.907257 289.876007,461.858948 
	C288.435944,461.348389 286.934753,460.265350 286.069977,459.023407 
	C283.896149,455.901398 282.050964,452.548523 280.108246,449.267975 
	C272.659454,436.689819 268.494873,423.734283 273.607910,408.953552 
	C276.069977,401.836334 277.186035,394.253479 278.907104,386.900665 
	C291.859283,389.826660 294.253845,391.511536 302.738922,399.940674 
	C306.186951,403.365997 310.421936,406.772766 314.930328,408.217621 
	C330.981415,413.361633 338.832672,426.372375 347.175842,439.215149 
	C334.545868,448.022949 334.146210,448.563751 335.409943,455.334534 
	C336.176300,454.809235 336.853271,454.402283 337.467255,453.915802 
	C345.307617,447.703796 353.829376,447.470245 362.875061,450.809784 
	C371.570496,454.020020 380.287109,457.187439 389.083710,460.104279 
	C395.112640,462.103394 395.905060,463.898895 392.073792,468.932404 
	C393.347412,468.932404 394.584717,469.194458 395.649384,468.877228 
	C397.790894,468.239075 401.068634,467.759491 401.614960,466.342316 
	C402.306854,464.547455 401.297150,461.505585 400.039734,459.676270 
	C397.604004,456.132721 394.412781,453.117401 391.677307,449.766724 
	C390.517761,448.346436 389.718079,446.632355 388.614838,444.822113 
	C393.197937,443.287170 397.304932,441.550842 400.277771,445.608215 
	C401.563019,447.362305 401.328278,450.230103 401.841644,452.890869 
	C405.145660,452.946381 405.754852,452.538788 406.720734,448.860657 
	C408.279724,442.923889 403.672882,435.727905 397.222534,434.890686 
	C391.633240,434.165192 385.937866,434.276642 380.292847,433.956390 
	C370.569733,433.404846 361.957458,431.905945 355.618958,422.472443 
	C345.385315,407.241791 333.685608,392.996216 322.383270,378.041046 
	C324.941559,374.451538 327.941742,370.472382 330.696686,366.330139 
	C337.001251,356.850891 340.986938,346.461060 340.603058,334.995758 
	C340.365021,327.886353 339.346497,320.696777 337.712708,313.770935 
	C336.140198,307.104919 337.382843,299.802002 332.748871,293.752289 
	C328.531860,288.246826 329.124054,285.374237 334.177582,280.515442 
	C337.041290,277.762177 339.583893,274.582794 342.767700,272.282684 
	C345.486633,270.318420 348.827911,269.072021 352.059235,268.012085 
	C354.151550,267.325806 356.541351,267.546326 359.107605,267.335022 
	C358.611328,263.862122 357.314392,261.986725 353.800598,261.616608 
	C350.529755,261.272125 347.122864,260.753113 344.138367,259.468658 
	C338.365814,256.984283 332.465363,256.015045 326.649475,258.127014 
	C321.251801,260.087097 316.551483,259.189178 311.358307,257.479492 
	C300.701294,253.971039 289.757446,251.603790 278.210327,252.268906 
	C287.023499,257.603577 293.783264,264.604706 298.138824,274.129822 
	C296.823273,275.339050 295.563873,276.390778 294.425201,277.560059 
	C285.187897,287.045532 276.390961,296.220795 281.447052,311.747681 
	C283.214600,317.175720 281.430725,324.271332 279.734436,330.163788 
	C278.220123,335.423950 273.117584,337.840820 267.544006,338.201111 
	C262.557800,338.523438 259.502014,335.453766 257.155731,331.637085 
	C256.425079,330.448517 256.533447,328.744171 256.257721,327.275909 
	C256.784729,327.060822 257.311737,326.845764 257.838745,326.630676 
	C259.255646,328.139526 260.679810,329.641632 262.088013,331.158539 
	C265.634277,334.978485 269.663269,335.613342 272.715912,331.523712 
	C275.342468,328.004852 277.413757,323.340210 277.783325,319.015778 
	C278.629730,309.111694 275.038666,299.928741 269.968231,291.618073 
	C257.793640,271.663269 247.857300,250.733307 240.583115,228.506775 
	C238.318405,221.586884 236.322983,214.321991 232.602829,208.185989 
	C223.355103,192.932816 213.185059,178.238861 203.376160,163.306259 
	C202.680176,163.970428 201.153137,165.427673 199.099869,167.387085 
	C192.173721,141.875427 185.402283,116.933601 178.630829,91.991768 
	C178.184250,92.041771 177.737656,92.091774 177.291061,92.141769 
	C176.376450,98.561386 175.461838,104.980995 174.547226,111.400612 
	C170.774033,82.643280 161.845276,55.640137 148.737000,29.017939 
	C145.472275,49.531960 147.020187,68.965775 150.376450,88.377869 
	C149.891800,88.420967 149.407150,88.464073 148.922516,88.507172 
	C139.551682,65.932617 130.180847,43.358059 120.256111,19.449148 
	C118.216240,37.556198 115.391441,54.227631 118.988899,70.676140 
	C122.515419,86.800217 127.718315,102.557648 132.003769,117.828522 
	C122.092758,101.523872 111.799263,84.589981 101.505768,67.656090 
	C101.186119,67.825859 100.866463,67.995621 100.546814,68.165382 
	C106.204895,89.589729 111.862984,111.014076 117.521065,132.438431 
	C117.052513,132.679260 116.583961,132.920090 116.115410,133.160919 
	C109.666954,126.174873 103.218498,119.188828 96.371170,111.770645 
	C97.617905,135.540176 102.503151,156.902298 123.345268,171.252914 
	C122.982971,171.499023 122.620674,171.745117 122.258377,171.991226 
	C116.869781,169.645813 111.481186,167.300400 106.092583,164.954987 
	C105.941040,165.155045 105.789490,165.355103 105.637947,165.555161 
	C114.734955,176.426804 123.831970,187.298447 133.057419,198.323578 
	C130.729446,199.556992 128.881439,200.536102 126.679230,201.702866 
	C129.387726,205.517853 131.456345,209.458588 134.487839,212.410477 
	C137.474548,215.318756 141.436768,217.225220 146.150238,220.354050 
	C141.425476,220.697861 138.111328,220.939041 135.045609,221.162140 
	C140.514343,228.557510 145.822433,235.704666 151.074600,242.892685 
	C151.530121,243.516098 151.967361,244.485718 151.818939,245.164658 
	C150.687469,250.340775 154.359604,252.394669 157.629776,255.027405 
	C159.155106,256.255432 160.863083,258.797729 160.580688,260.410248 
	C159.986923,263.800934 161.526367,265.136261 163.841843,266.817810 
	C165.832581,268.263550 168.875427,270.512665 168.741440,272.189972 
	C168.402802,276.429382 170.634186,277.681915 173.670975,278.910370 
	C175.671768,279.719727 177.895737,280.303314 179.544922,281.594482 
	C184.385757,285.384430 185.265778,292.452789 190.901413,295.676666 
	C189.447144,300.834229 192.710037,303.827576 196.327072,306.785461 
	C194.505844,306.844055 193.059601,306.578339 191.615326,306.302307 
	C177.139816,303.535767 163.435715,303.834534 152.138977,315.344574 
	C150.701767,316.808929 147.968903,317.617584 145.814590,317.661316 
	C132.714981,317.927338 119.557724,318.593353 106.526497,317.650269 
	C99.800652,317.163513 92.885704,314.433258 86.778305,311.306305 
	C75.384521,305.472717 75.169243,293.134552 85.937958,286.384003 
	C88.996902,284.466492 92.572205,283.388367 95.852684,281.805115 
	C102.116867,278.781769 108.581047,276.063385 114.472023,272.424805 
	C117.209084,270.734222 120.188873,267.405304 120.656921,264.440033 
	C122.288956,254.100388 120.981529,244.069382 112.975349,236.210022 
	C101.552002,224.996124 87.000229,224.246429 71.518982,223.959412 
	C76.465675,226.469376 80.861305,228.336960 84.814438,230.889771 
	C86.328979,231.867798 86.832825,234.410965 87.797211,236.240921 
	C85.874748,236.728165 83.916962,237.729309 82.036880,237.600067 
	C77.562172,237.292480 73.124191,236.450424 68.415871,235.788376 
	C73.591286,238.992950 78.721222,241.452515 82.994514,244.956757 
	C93.605965,253.658478 92.578941,271.636322 81.410599,279.260284 
	C79.899887,280.291565 78.364594,281.342377 77.057747,282.608215 
	C62.139694,297.058075 64.412476,313.969391 81.686440,321.926270 
	C90.706528,326.081146 100.911064,328.029724 110.788422,329.842682 
	C118.672379,331.289795 126.870789,331.023682 136.023453,331.585114 
	C134.429626,336.252808 133.814499,340.954071 131.438187,344.462433 
	C124.680328,354.439636 124.064728,364.396271 129.452927,374.978485 
	C130.430603,376.898560 131.469238,378.877899 131.923004,380.951691 
	C132.492081,383.552490 133.117676,386.403076 132.620407,388.929657 
	C130.456924,399.921570 126.784164,410.341736 120.182785,419.618225 
	C118.861122,421.475464 117.969719,424.343781 118.295029,426.535889 
	C119.268738,433.097229 120.768929,439.601013 122.477531,446.017029 
	C122.867882,447.482880 124.840988,449.456787 126.224312,449.575073 
	C134.115555,450.249725 142.049332,450.640625 149.967285,450.619324 
	C151.663956,450.614777 154.116013,448.881378 154.883087,447.297089 
	C156.285248,444.401062 153.722610,443.157379 151.461227,441.756317 
	C146.396149,438.618164 141.506485,435.185699 136.667862,431.702942 
	C135.752258,431.043915 134.629944,429.303711 134.912598,428.560455 
	C137.666016,421.320312 139.447952,413.259949 143.921097,407.222015 
	C152.236496,395.997864 164.426041,387.961243 171.219025,375.364624 
	C174.855698,380.398956 176.274353,385.048615 170.758759,389.734650 
	C166.994720,392.932556 168.560608,396.550171 171.046799,399.882690 
	C177.512833,408.549713 183.776550,417.376953 190.499695,425.839386 
	C194.552460,430.940613 196.999725,435.648346 192.673248,441.847107 
	C190.688324,444.690948 191.978485,446.733459 195.495224,447.467926 
	C199.055237,448.211456 202.975464,448.576019 205.976349,450.376099 
	C212.610428,454.355591 219.436523,454.920685 226.549820,452.978119 
	C229.043198,452.297211 231.191650,450.353180 234.492111,448.396301 
	C219.997009,440.727295 209.059891,432.479736 202.092407,418.549286 
	C196.437286,407.242676 194.302170,397.472443 200.308365,386.058685 
	C203.084885,380.782410 207.923828,376.232391 213.980988,376.143738 
	C217.619827,376.090485 221.266312,376.876984 224.912506,376.907166 
	C227.709808,376.930298 228.971542,378.121246 229.930267,380.644745 
	C231.336746,384.346832 233.242065,387.859406 235.373184,392.035217 
M340.294189,303.078278 
	C346.683777,309.100830 350.849335,309.372131 357.719818,304.330292 
	C354.890503,303.245758 351.175323,302.867920 349.258575,300.812805 
	C347.036774,298.430603 346.224091,294.628052 345.191132,291.319855 
	C344.941467,290.520264 346.006500,288.577606 346.849915,288.292175 
	C351.217316,286.814209 355.690643,286.174683 359.428436,289.866119 
	C361.641907,292.052155 363.664917,294.431000 366.870087,297.915131 
	C367.723419,292.517487 368.991119,288.084686 368.984009,283.653931 
	C368.974670,277.856628 364.275543,272.953888 358.368011,271.288940 
	C352.260101,269.567535 348.239136,271.092010 344.023346,276.355164 
	C342.495880,278.262177 340.089386,279.531586 338.804626,281.550537 
	C336.967255,284.437775 334.362396,287.901398 334.681030,290.837189 
	C335.118469,294.868134 337.985352,298.635437 340.294189,303.078278 
M310.087555,242.036346 
	C309.748993,242.397186 309.410431,242.758011 309.071899,243.118851 
	C313.825836,246.200302 317.690491,249.910950 317.537567,256.713593 
	C321.573853,255.560608 324.823700,254.632263 328.161743,253.678741 
	C324.551025,247.040436 320.576019,244.440903 310.087555,242.036346 
M276.632141,251.489120 
	C276.632141,251.489120 276.712097,251.538208 276.632141,251.489120 
z"/>
<path fill="#9DBE16" opacity="1.000000" stroke="none" 
	d="
M235.154007,391.743958 
	C233.242065,387.859406 231.336746,384.346832 229.930267,380.644745 
	C228.971542,378.121246 227.709808,376.930298 224.912506,376.907166 
	C221.266312,376.876984 217.619827,376.090485 213.980988,376.143738 
	C207.923828,376.232391 203.084885,380.782410 200.308365,386.058685 
	C194.302170,397.472443 196.437286,407.242676 202.092407,418.549286 
	C209.059891,432.479736 219.997009,440.727295 234.492111,448.396301 
	C231.191650,450.353180 229.043198,452.297211 226.549820,452.978119 
	C219.436523,454.920685 212.610428,454.355591 205.976349,450.376099 
	C202.975464,448.576019 199.055237,448.211456 195.495224,447.467926 
	C191.978485,446.733459 190.688324,444.690948 192.673248,441.847107 
	C196.999725,435.648346 194.552460,430.940613 190.499695,425.839386 
	C183.776550,417.376953 177.512833,408.549713 171.046799,399.882690 
	C168.560608,396.550171 166.994720,392.932556 170.758759,389.734650 
	C176.274353,385.048615 174.855698,380.398956 171.219025,375.364624 
	C164.426041,387.961243 152.236496,395.997864 143.921097,407.222015 
	C139.447952,413.259949 137.666016,421.320312 134.912598,428.560455 
	C134.629944,429.303711 135.752258,431.043915 136.667862,431.702942 
	C141.506485,435.185699 146.396149,438.618164 151.461227,441.756317 
	C153.722610,443.157379 156.285248,444.401062 154.883087,447.297089 
	C154.116013,448.881378 151.663956,450.614777 149.967285,450.619324 
	C142.049332,450.640625 134.115555,450.249725 126.224312,449.575073 
	C124.840988,449.456787 122.867882,447.482880 122.477531,446.017029 
	C120.768929,439.601013 119.268738,433.097229 118.295029,426.535889 
	C117.969719,424.343781 118.861122,421.475464 120.182785,419.618225 
	C126.784164,410.341736 130.456924,399.921570 132.620407,388.929657 
	C133.117676,386.403076 132.492081,383.552490 131.923004,380.951691 
	C131.469238,378.877899 130.430603,376.898560 129.452927,374.978485 
	C124.064728,364.396271 124.680328,354.439636 131.438187,344.462433 
	C133.814499,340.954071 134.429626,336.252808 136.023453,331.585114 
	C126.870789,331.023682 118.672379,331.289795 110.788422,329.842682 
	C100.911064,328.029724 90.706528,326.081146 81.686440,321.926270 
	C64.412476,313.969391 62.139694,297.058075 77.057747,282.608215 
	C78.364594,281.342377 79.899887,280.291565 81.410599,279.260284 
	C92.578941,271.636322 93.605965,253.658478 82.994514,244.956757 
	C78.721222,241.452515 73.591286,238.992950 68.415871,235.788376 
	C73.124191,236.450424 77.562172,237.292480 82.036880,237.600067 
	C83.916962,237.729309 85.874748,236.728165 87.797211,236.240936 
	C86.832825,234.410965 86.328979,231.867798 84.814438,230.889771 
	C80.861305,228.336960 76.465675,226.469376 71.518982,223.959412 
	C87.000229,224.246429 101.552002,224.996124 112.975349,236.210022 
	C120.981529,244.069382 122.288956,254.100388 120.656921,264.440033 
	C120.188873,267.405304 117.209084,270.734222 114.472023,272.424805 
	C108.581047,276.063385 102.116867,278.781769 95.852684,281.805115 
	C92.572205,283.388367 88.996902,284.466492 85.937958,286.384003 
	C75.169243,293.134552 75.384521,305.472717 86.778305,311.306305 
	C92.885704,314.433258 99.800652,317.163513 106.526497,317.650269 
	C119.557724,318.593353 132.714981,317.927338 145.814590,317.661316 
	C147.968903,317.617584 150.701767,316.808929 152.138977,315.344574 
	C163.435715,303.834534 177.139816,303.535767 191.615326,306.302307 
	C193.059601,306.578339 194.505844,306.844055 196.327072,306.785461 
	C192.710037,303.827576 189.447144,300.834229 190.901413,295.676666 
	C185.265778,292.452789 184.385757,285.384430 179.544922,281.594482 
	C177.895737,280.303314 175.671768,279.719727 173.670975,278.910370 
	C170.634186,277.681915 168.402802,276.429382 168.741440,272.189972 
	C168.875427,270.512665 165.832581,268.263550 163.841843,266.817810 
	C161.526367,265.136261 159.986923,263.800934 160.580688,260.410248 
	C160.863083,258.797729 159.155106,256.255432 157.629776,255.027405 
	C154.359604,252.394669 150.687469,250.340775 151.818939,245.164658 
	C151.967361,244.485718 151.530121,243.516098 151.074600,242.892685 
	C145.822433,235.704666 140.514343,228.557510 135.045609,221.162140 
	C138.111328,220.939041 141.425476,220.697861 146.150238,220.354050 
	C141.436768,217.225220 137.474548,215.318756 134.487839,212.410477 
	C131.456345,209.458588 129.387726,205.517853 126.679230,201.702866 
	C128.881439,200.536102 130.729446,199.556992 133.057419,198.323578 
	C123.831970,187.298447 114.734955,176.426804 105.637947,165.555161 
	C105.789490,165.355103 105.941040,165.155045 106.092583,164.954987 
	C111.481186,167.300400 116.869781,169.645813 122.258377,171.991226 
	C122.620674,171.745117 122.982971,171.499023 123.345268,171.252914 
	C102.503151,156.902298 97.617905,135.540176 96.371170,111.770645 
	C103.218498,119.188828 109.666954,126.174873 116.115410,133.160919 
	C116.583961,132.920090 117.052513,132.679260 117.521065,132.438431 
	C111.862984,111.014076 106.204895,89.589729 100.546814,68.165382 
	C100.866463,67.995621 101.186119,67.825859 101.505768,67.656090 
	C111.799263,84.589981 122.092758,101.523872 132.003769,117.828522 
	C127.718315,102.557648 122.515419,86.800217 118.988899,70.676140 
	C115.391441,54.227631 118.216240,37.556198 120.256111,19.449148 
	C130.180847,43.358059 139.551682,65.932617 148.922516,88.507172 
	C149.407150,88.464073 149.891800,88.420967 150.376450,88.377869 
	C147.020187,68.965775 145.472275,49.531960 148.737000,29.017939 
	C161.845276,55.640137 170.774033,82.643280 174.547226,111.400612 
	C175.461838,104.980995 176.376450,98.561386 177.291061,92.141769 
	C177.737656,92.091774 178.184250,92.041771 178.630829,91.991768 
	C185.402283,116.933601 192.173721,141.875427 199.099869,167.387085 
	C201.153137,165.427673 202.680176,163.970428 203.376160,163.306259 
	C213.185059,178.238861 223.355103,192.932816 232.602829,208.185989 
	C236.322983,214.321991 238.318405,221.586884 240.583115,228.506775 
	C247.857300,250.733307 257.793640,271.663269 269.968231,291.618073 
	C275.038666,299.928741 278.629730,309.111694 277.783325,319.015778 
	C277.413757,323.340210 275.342468,328.004852 272.715912,331.523712 
	C269.663269,335.613342 265.634277,334.978485 262.088013,331.158539 
	C260.679810,329.641632 259.255646,328.139526 257.838745,326.630676 
	C257.311737,326.845764 256.784729,327.060822 256.257721,327.275909 
	C256.533447,328.744171 256.425079,330.448517 257.155731,331.637085 
	C259.502014,335.453766 262.557800,338.523438 267.544006,338.201111 
	C273.117584,337.840820 278.220123,335.423950 279.734436,330.163788 
	C281.430725,324.271332 283.214600,317.175720 281.447052,311.747681 
	C276.390961,296.220795 285.187897,287.045532 294.425201,277.560059 
	C295.563873,276.390778 296.823273,275.339050 298.138824,274.129822 
	C293.783264,264.604706 287.023499,257.603577 278.210327,252.268906 
	C289.757446,251.603790 300.701294,253.971039 311.358307,257.479492 
	C316.551483,259.189178 321.251801,260.087097 326.649475,258.127014 
	C332.465363,256.015045 338.365814,256.984283 344.138367,259.468658 
	C347.122864,260.753113 350.529755,261.272125 353.800598,261.616608 
	C357.314392,261.986725 358.611328,263.862122 359.107605,267.335022 
	C356.541351,267.546326 354.151550,267.325806 352.059235,268.012085 
	C348.827911,269.072021 345.486633,270.318420 342.767700,272.282684 
	C339.583893,274.582794 337.041290,277.762177 334.177582,280.515442 
	C329.124054,285.374237 328.531860,288.246826 332.748871,293.752289 
	C337.382843,299.802002 336.140198,307.104919 337.712708,313.770935 
	C339.346497,320.696777 340.365021,327.886353 340.603058,334.995758 
	C340.986938,346.461060 337.001251,356.850891 330.696686,366.330139 
	C327.941742,370.472382 324.941559,374.451538 322.383270,378.041046 
	C333.685608,392.996216 345.385315,407.241791 355.618958,422.472443 
	C361.957458,431.905945 370.569733,433.404846 380.292847,433.956390 
	C385.937866,434.276642 391.633240,434.165192 397.222534,434.890686 
	C403.672882,435.727905 408.279724,442.923889 406.720734,448.860657 
	C405.754852,452.538788 405.145660,452.946381 401.841644,452.890869 
	C401.328278,450.230103 401.563019,447.362305 400.277771,445.608215 
	C397.304932,441.550842 393.197937,443.287170 388.614838,444.822113 
	C389.718079,446.632355 390.517761,448.346436 391.677307,449.766724 
	C394.412781,453.117401 397.604004,456.132721 400.039734,459.676270 
	C401.297150,461.505585 402.306854,464.547455 401.614960,466.342316 
	C401.068634,467.759491 397.790894,468.239075 395.649384,468.877228 
	C394.584717,469.194458 393.347412,468.932404 392.073792,468.932404 
	C395.905060,463.898895 395.112640,462.103394 389.083710,460.104279 
	C380.287109,457.187439 371.570496,454.020020 362.875061,450.809784 
	C353.829376,447.470245 345.307617,447.703796 337.467255,453.915802 
	C336.853271,454.402283 336.176300,454.809235 335.409943,455.334534 
	C334.146210,448.563751 334.545868,448.022949 347.175842,439.215149 
	C338.832672,426.372375 330.981415,413.361633 314.930328,408.217621 
	C310.421936,406.772766 306.186951,403.365997 302.738922,399.940674 
	C294.253845,391.511536 291.859283,389.826660 278.907104,386.900665 
	C277.186035,394.253479 276.069977,401.836334 273.607910,408.953552 
	C268.494873,423.734283 272.659454,436.689819 280.108246,449.267975 
	C282.050964,452.548523 283.896149,455.901398 286.069977,459.023407 
	C286.934753,460.265350 288.435944,461.348389 289.876007,461.858948 
	C298.473602,464.907257 307.063721,468.019165 315.807526,470.596802 
	C321.139160,472.168549 323.725494,475.881226 325.349579,480.562531 
	C327.320343,486.243103 323.250000,491.292938 318.711578,490.789246 
	C318.832886,488.034210 319.861938,484.995544 318.870087,482.924988 
	C316.852081,478.712402 312.598694,478.788116 307.640411,479.513092 
	C308.463562,481.779266 309.010132,483.751648 309.876282,485.571960 
	C311.732239,489.472412 314.057037,493.174530 315.635193,497.176636 
	C317.978363,503.118896 315.521667,505.784271 309.220856,504.570251 
	C308.080627,504.350555 306.957367,504.042542 305.854065,503.781860 
	C306.891327,502.161072 309.115784,500.088501 308.708313,499.013550 
	C307.984222,497.103271 305.831207,495.557068 303.983978,494.281342 
	C296.616302,489.193146 289.025909,484.423187 281.725494,479.242950 
	C272.649323,472.802673 263.244171,471.839447 253.170044,477.055389 
	C254.191711,469.765137 254.598022,469.434265 269.593170,463.709595 
	C265.215088,451.767792 260.831635,439.807068 256.441711,427.848724 
	C256.212738,427.224976 255.830399,426.643646 255.685867,426.004883 
	C252.621521,412.461731 245.213959,401.522461 235.154007,391.743958 
M326.157440,266.277313 
	C322.578827,265.688385 319.000214,265.099457 314.862793,264.418579 
	C325.193787,275.232910 330.272247,276.580536 338.774445,270.100891 
	C334.367371,268.752380 330.669037,267.620758 326.157440,266.277313 
z"/>
<path fill="#9DBE16" opacity="1.000000" stroke="none" 
	d="
M410.244080,13.218075 
	C404.733887,31.292948 399.253571,49.377014 393.704651,67.439987 
	C388.665344,83.844101 383.551331,100.225258 378.873352,116.805946 
	C385.913208,104.666023 391.699097,91.528435 400.342529,80.664330 
	C409.140228,69.606422 420.751526,60.787006 431.661133,51.068439 
	C432.345459,51.264126 432.499481,51.378796 432.653534,51.493469 
	C419.742035,77.748718 406.830505,104.003975 393.743408,130.672928 
	C393.633026,131.289902 393.698181,131.493164 393.763336,131.696442 
	C393.851776,131.472946 393.940216,131.249435 394.028656,131.025940 
	C395.451477,129.998764 397.052765,129.148132 398.269928,127.917557 
	C413.447449,112.573364 430.337158,99.367661 448.384247,87.597046 
	C448.749756,87.358650 449.215210,87.273491 450.483978,86.798927 
	C449.398682,88.642555 448.787170,89.894012 447.986420,91.009636 
	C435.956696,107.770355 424.391266,124.894188 411.723572,141.159164 
	C397.421600,159.522537 388.826477,180.493744 382.164734,202.301239 
	C376.493256,220.866959 370.149506,238.837036 358.339325,254.593536 
	C355.208008,258.771179 352.219543,258.724915 348.235596,257.530121 
	C347.774170,257.391724 347.401825,256.824890 346.956879,256.782104 
	C336.990845,255.823593 329.689697,250.079636 322.142395,244.101929 
	C315.620728,238.936539 307.325836,239.348938 299.148712,240.728943 
	C305.245300,244.199341 312.658813,246.150208 314.337555,255.397736 
	C298.423676,249.163879 282.759583,247.987808 266.630829,249.692383 
	C272.165466,253.225342 277.452728,256.502167 282.618988,259.959839 
	C284.111755,260.958923 285.341370,262.402954 286.547333,263.770294 
	C293.765442,271.954224 293.623840,272.134247 286.572296,280.329132 
	C282.919739,284.573914 279.808899,289.284790 276.297882,293.993530 
	C270.866791,283.691925 265.389648,273.303009 260.021545,262.388641 
	C260.130585,261.863220 260.468903,261.498962 260.468903,261.498962 
	C262.745880,262.650909 265.022858,263.802856 267.737549,265.101898 
	C268.221039,265.149353 268.266785,265.049744 268.312531,264.950073 
	C268.187744,264.993286 268.062958,265.036499 267.938171,265.079712 
	C265.679077,261.139618 263.515228,257.140839 261.136322,253.274429 
	C258.271240,248.617905 255.223343,244.073853 251.679810,238.591919 
	C259.167084,240.328537 265.798248,241.866592 273.536652,243.661453 
	C270.326111,234.593506 267.446808,226.461029 264.567505,218.328552 
	C264.779205,218.112289 264.990936,217.896027 265.202667,217.679764 
	C269.361877,222.906418 273.521057,228.133057 278.388367,234.249573 
	C278.388367,223.259766 278.388367,213.499695 278.388367,202.715591 
	C280.991425,207.675705 283.156281,211.800858 285.321167,215.926025 
	C285.697968,215.845032 286.074799,215.764038 286.451599,215.683029 
	C286.451599,208.649796 286.451599,201.616562 286.451599,193.257751 
	C289.689209,196.093323 291.916107,198.043686 294.143036,199.994064 
	C294.551544,199.846359 294.960052,199.698654 295.368561,199.550949 
	C294.443176,191.606049 293.517761,183.661148 292.566833,175.496979 
	C294.727509,174.987549 296.774353,174.504959 299.185425,173.936508 
	C299.185425,165.011139 299.185425,156.279160 299.185425,147.547180 
	C299.494507,147.380493 299.803589,147.213806 300.112671,147.047119 
	C301.520294,149.050507 302.927917,151.053894 304.335571,153.057281 
	C304.875885,152.817795 305.416199,152.578293 305.956512,152.338806 
	C306.538696,142.718201 307.120850,133.097610 307.786957,122.090065 
	C311.375641,127.205719 314.218109,131.257599 317.060547,135.309479 
	C316.932404,116.657021 319.234131,98.870239 329.558838,82.049034 
	C331.995117,98.687187 334.319000,114.557655 336.642883,130.428116 
	C337.090729,130.455292 337.538574,130.482468 337.986420,130.509644 
	C337.020020,102.844116 345.374847,77.881248 360.044800,53.402313 
	C360.525696,60.552635 360.910950,66.650284 361.352539,72.743843 
	C361.796265,78.867584 362.296051,84.987274 363.309998,91.321220 
	C373.782837,62.340115 387.721344,35.485153 409.379791,12.871431 
	C409.966766,12.970759 410.105438,13.094417 410.244080,13.218075 
z"/>
<path fill="#9EBE18" opacity="1.000000" stroke="none" 
	d="
M340.052704,302.796997 
	C337.985352,298.635437 335.118469,294.868134 334.681030,290.837189 
	C334.362396,287.901398 336.967255,284.437775 338.804626,281.550537 
	C340.089386,279.531586 342.495880,278.262177 344.023346,276.355164 
	C348.239136,271.092010 352.260101,269.567535 358.368011,271.288940 
	C364.275543,272.953888 368.974670,277.856628 368.984009,283.653931 
	C368.991119,288.084686 367.723419,292.517487 366.870087,297.915131 
	C363.664917,294.431000 361.641907,292.052155 359.428436,289.866119 
	C355.690643,286.174683 351.217316,286.814209 346.849915,288.292175 
	C346.006500,288.577606 344.941467,290.520264 345.191132,291.319855 
	C346.224091,294.628052 347.036774,298.430603 349.258575,300.812805 
	C351.175323,302.867920 354.890503,303.245758 357.719818,304.330292 
	C350.849335,309.372131 346.683777,309.100830 340.052704,302.796997 
z"/>
<path fill="#9EBF1C" opacity="1.000000" stroke="none" 
	d="
M310.451965,242.070389 
	C320.576019,244.440903 324.551025,247.040436 328.161743,253.678741 
	C324.823700,254.632263 321.573853,255.560608 317.537567,256.713593 
	C317.690491,249.910950 313.825836,246.200302 309.071899,243.118835 
	C309.410431,242.758011 309.748993,242.397186 310.451965,242.070389 
z"/>
<path fill="#9DBE16" opacity="1.000000" stroke="none" 
	d="
M409.626984,12.654182 
	C409.865051,12.126968 410.304260,11.792672 410.743469,11.458378 
	C410.732086,11.924344 410.720703,12.390307 410.476685,13.037172 
	C410.105438,13.094417 409.966766,12.970759 409.626984,12.654182 
z"/>
<path fill="#9DBE16" opacity="1.000000" stroke="none" 
	d="
M431.978333,50.955711 
	C432.094391,50.568829 432.423523,50.375694 432.752686,50.182556 
	C432.820953,50.455154 432.889252,50.727749 432.805542,51.246910 
	C432.499481,51.378796 432.345459,51.264126 431.978333,50.955711 
z"/>
<path fill="#9DBE16" opacity="1.000000" stroke="none" 
	d="
M276.672119,251.513672 
	C276.712097,251.538208 276.632141,251.489120 276.672119,251.513672 
z"/>
<path fill="#9DBE16" opacity="1.000000" stroke="none" 
	d="
M259.954895,262.039032 
	C259.618591,261.896362 259.458038,261.577911 259.297455,261.259399 
	C259.549622,261.221680 259.801758,261.183960 260.261414,261.322601 
	C260.468903,261.498962 260.130585,261.863220 259.954895,262.039032 
z"/>
<path fill="#F9FBF2" opacity="1.000000" stroke="none" 
	d="
M326.564087,266.383240 
	C330.669037,267.620758 334.367371,268.752380 338.774445,270.100891 
	C330.272247,276.580536 325.193787,275.232910 314.862793,264.418579 
	C319.000214,265.099457 322.578827,265.688385 326.564087,266.383240 
z"/>
<path fill="#FFFFFE" opacity="1.000000" stroke="none" 
	d="
M394.018005,131.016403 
	C393.940216,131.249435 393.851776,131.472946 393.763336,131.696442 
	C393.698181,131.493164 393.633026,131.289902 393.778748,131.038910 
	C393.989655,130.991165 394.007385,131.006866 394.018005,131.016403 
z"/>
<path fill="#FFFFFE" opacity="1.000000" stroke="none" 
	d="
M267.954529,265.055542 
	C268.062958,265.036499 268.187744,264.993286 268.312531,264.950073 
	C268.266785,265.049744 268.221039,265.149353 268.088287,265.115265 
	C268.001312,264.981537 267.970886,265.031403 267.954529,265.055542 
z"/>
</svg>