<?xml version="1.0" encoding="UTF-8"?>
<svg version="1.1" xmlns="http://www.w3.org/2000/svg" width="74" height="42">
<path d="M0 0 C0.66 0.33 1.32 0.66 2 1 C2 1.66 2 2.32 2 3 C2.33 3.99 2.66 4.98 3 6 C3.66 6.33 4.32 6.66 5 7 C4.66226563 7.51949219 4.32453125 8.03898438 3.9765625 8.57421875 C-0.93926956 16.17536698 -0.93926956 16.17536698 -2 25 C-2.99 25.33 -3.98 25.66 -5 26 C-5.23428313 30.7897321 -5.23428313 30.7897321 -3 35 C-0.94074861 35.72382467 -0.94074861 35.72382467 1 36 C0.34 37.32 -0.32 38.64 -1 40 C-2.32 39.67 -3.64 39.34 -5 39 C-5.66 39.99 -6.32 40.98 -7 42 C-8.98 41.34 -10.96 40.68 -13 40 C-13.103125 39.05125 -13.20625 38.1025 -13.3125 37.125 C-13.68539295 33.70892499 -13.68539295 33.70892499 -17 32 C-16.505 32.78375 -16.01 33.5675 -15.5 34.375 C-14 37 -14 37 -14 39 C-15.875 38.75 -15.875 38.75 -18 38 C-19.25 35.9375 -19.25 35.9375 -20 34 C-20 34.99 -20 35.98 -20 37 C-21.98 37.495 -21.98 37.495 -24 38 C-25.0635774 34.80926781 -24.89019883 34.06624043 -24 31 C-24 30.34 -24 29.68 -24 29 C-26.46326712 27.3553326 -26.46326712 27.3553326 -29 26 C-28.835 25.236875 -28.67 24.47375 -28.5 23.6875 C-27.90854604 20.96403764 -27.90854604 20.96403764 -28 18 C-26.68 18.33 -25.36 18.66 -24 19 C-23.67 20.32 -23.34 21.64 -23 23 C-23.99 23.66 -24.98 24.32 -26 25 C-24.35 25 -22.7 25 -21 25 C-21 21.57085594 -21.51877793 21.07362603 -23.5 18.4375 C-26.59357404 13.71848875 -26.68406425 9.50183108 -26 4 C-25.67 3.01 -25.34 2.02 -25 1 C-22.6640625 1.625 -22.6640625 1.625 -20 3 C-18.5234375 5.75 -18.5234375 5.75 -17.375 9 C-15.78365756 13.8104066 -15.78365756 13.8104066 -12 17 C-11.74605469 16.48050781 -11.49210937 15.96101562 -11.23046875 15.42578125 C-6.8876635 6.62631444 -6.8876635 6.62631444 -5 4 C-4.01 4 -3.02 4 -2 4 C-1.34 2.68 -0.68 1.36 0 0 Z M-10 33 C-10.33 33.99 -10.66 34.98 -11 36 C-10.01 37.485 -10.01 37.485 -9 39 C-8.01 39 -7.02 39 -6 39 C-6 37.68 -6 36.36 -6 35 C-7.32 34.34 -8.64 33.68 -10 33 Z " fill="#FEFEFE" transform="translate(29,0)"/>
<path d="M0 0 C1.65 0.33 3.3 0.66 5 1 C6.125 5.75 6.125 5.75 5 8 C4.67 8.33 4.34 8.66 4 9 C5.32 8.34 6.64 7.68 8 7 C8 5.02 8 3.04 8 1 C7.34 0.67 6.68 0.34 6 0 C7.98 0 9.96 0 12 0 C11.01 0.495 11.01 0.495 10 1 C10 2.98 10 4.96 10 7 C13.2985139 6.27731765 13.2985139 6.27731765 14.6875 2.9375 C15.120625 1.968125 15.55375 0.99875 16 0 C16.66 0 17.32 0 18 0 C19 4 19 4 19 13 C12.73 13 6.46 13 0 13 C-0.89377528 9.42489889 -1.0258444 7.75082437 -0.5625 4.25 C-0.46066406 3.45078125 -0.35882813 2.6515625 -0.25390625 1.828125 C-0.17011719 1.22484375 -0.08632813 0.6215625 0 0 Z M2 1 C2 2.98 2 4.96 2 7 C2.33 7 2.66 7 3 7 C3 5.02 3 3.04 3 1 C2.67 1 2.34 1 2 1 Z M15 7 C15.33 7.99 15.66 8.98 16 10 C16.66 9.67 17.32 9.34 18 9 C18 8.34 18 7.68 18 7 C17.01 7 16.02 7 15 7 Z " fill="#FEFEFC" transform="translate(55,27)"/>
<path d="M0 0 C4.33333333 0 8.66666667 0 13 0 C11.515 1.485 11.515 1.485 10 3 C10.99 3 11.98 3 13 3 C13 3.66 13 4.32 13 5 C12.01 5 11.02 5 10 5 C10 5.66 10 6.32 10 7 C10.99 7 11.98 7 13 7 C13 8.98 13 10.96 13 13 C9.04 13 5.08 13 1 13 C0.18279507 9.73118027 -0.11073543 7.53000931 -0.0625 4.25 C-0.05347656 3.45078125 -0.04445312 2.6515625 -0.03515625 1.828125 C-0.02355469 1.22484375 -0.01195312 0.6215625 0 0 Z M4 6 C3.01 6.495 3.01 6.495 2 7 C2.33 7.99 2.66 8.98 3 10 C4.32 9.67 5.64 9.34 7 9 C6.34 9 5.68 9 5 9 C4.67 8.01 4.34 7.02 4 6 Z " fill="#FBFBFC" transform="translate(40,27)"/>
<path d="M0 0 C1.32 0 2.64 0 4 0 C4 0.66 4 1.32 4 2 C3.01 2 2.02 2 1 2 C1 2.66 1 3.32 1 4 C1.99 4 2.98 4 4 4 C4 5.65 4 7.3 4 9 C2.35 8.67 0.7 8.34 -1 8 C-1.625 5.6875 -1.625 5.6875 -2 3 C-1.34 2.01 -0.68 1.02 0 0 Z " fill="#FEFEFE" transform="translate(61,15)"/>
<path d="M0 0 C0.66 0.33 1.32 0.66 2 1 C2.59355614 3.64860427 2.74209269 6.29197322 3 9 C1.68 8.34 0.36 7.68 -1 7 C-1 7.66 -1 8.32 -1 9 C-1.66 9 -2.32 9 -3 9 C-2.44271087 5.65626525 -1.64826111 2.96687001 0 0 Z " fill="#FEFDFD" transform="translate(71,15)"/>
<path d="M0 0 C1.98 0.99 1.98 0.99 4 2 C4.33 1.34 4.66 0.68 5 0 C5.66 0 6.32 0 7 0 C6.50351065 4.46840411 6.31012244 5.68987756 3 9 C2.01 6.03 1.02 3.06 0 0 Z " fill="#FEFEFE" transform="translate(40,15)"/>
<path d="M0 0 C1.98 0 3.96 0 6 0 C5.67 0.66 5.34 1.32 5 2 C4.01 2.33 3.02 2.66 2 3 C2.99 3 3.98 3 5 3 C5 3.66 5 4.32 5 5 C4.01 5 3.02 5 2 5 C2 5.66 2 6.32 2 7 C3.32 7.33 4.64 7.66 6 8 C4.02 8 2.04 8 0 8 C0 5.36 0 2.72 0 0 Z " fill="#FEFEFE" transform="translate(55,4)"/>
<path d="M0 0 C1.65 0 3.3 0 5 0 C4.67 1.65 4.34 3.3 4 5 C3.01 5 2.02 5 1 5 C1 5.66 1 6.32 1 7 C2.32 7 3.64 7 5 7 C5 7.66 5 8.32 5 9 C3.35 9 1.7 9 0 9 C0 6.03 0 3.06 0 0 Z " fill="#FEFEFE" transform="translate(51,15)"/>
<path d="M0 0 C0.99 0 1.98 0 3 0 C2.814375 0.556875 2.62875 1.11375 2.4375 1.6875 C1.92448835 4.399133 2.3359276 6.34371039 3 9 C2.01 9.33 1.02 9.66 0 10 C-0.66 9.67 -1.32 9.34 -2 9 C-1.67 8.34 -1.34 7.68 -1 7 C-0.01 7.33 0.98 7.66 2 8 C2 7.34 2 6.68 2 6 C0.68 5.34 -0.64 4.68 -2 4 C-1.34 2.68 -0.68 1.36 0 0 Z " fill="#FEFEFE" transform="translate(71,3)"/>
<path d="M0 0 C0.99 0.33 1.98 0.66 3 1 C3 1.66 3 2.32 3 3 C2.01 3.33 1.02 3.66 0 4 C0 5.32 0 6.64 0 8 C0.99 8.33 1.98 8.66 3 9 C2.01 9.33 1.02 9.66 0 10 C-0.66 9.67 -1.32 9.34 -2 9 C-2.125 5.625 -2.125 5.625 -2 2 C-1.34 1.34 -0.68 0.68 0 0 Z " fill="#FEFEFE" transform="translate(43,3)"/>
</svg>
